<svg width="141" height="141" viewBox="0 0 141 141" fill="none" xmlns="http://www.w3.org/2000/svg">
<path d="M70.3901 141C31.6401 140.97 -0.0499409 109.14 5.90858e-05 70.3002C0.0500591 31.5802 31.9301 -0.0798487 70.7901 0.000151278C109.48 0.0801513 141.11 32.0102 141 70.8801C140.89 109.41 109.05 141.03 70.3901 141ZM70.6201 16.4601C40.7801 16.4401 16.5201 40.4802 16.4701 70.1102C16.4101 100.2 40.4001 124.49 70.2101 124.53C100.28 124.57 124.51 100.56 124.54 70.7001C124.57 40.6702 100.52 16.4802 70.6201 16.4601Z" fill="white"/>
<path d="M52.6201 98.3801C52.6201 79.6401 52.6201 61.4801 52.6201 42.6301C68.7801 51.9401 84.6601 61.1001 100.96 70.4901C84.7501 79.8501 68.8801 89.0001 52.6201 98.3801Z" fill="white"/>
</svg>
